<?xml version="1.0" standalone="no"?>
<!DOCTYPE svg PUBLIC "-//W3C//DTD SVG 20010904//EN"
 "http://www.w3.org/TR/2001/REC-SVG-20010904/DTD/svg10.dtd">
<svg version="1.0" xmlns="http://www.w3.org/2000/svg"
 width="1024.000000pt" height="1024.000000pt" viewBox="0 0 1024.000000 1024.000000"
 preserveAspectRatio="xMidYMid meet">

<g transform="translate(0.000000,1024.000000) scale(0.100000,-0.100000)"
fill="#000000" stroke="none">
<path d="M4935 7642 c-75 -22 -171 -75 -167 -92 2 -8 -3 -10 -13 -6 -10 3 -14
2 -10 -5 4 -6 1 -9 -7 -7 -12 3 -58 -35 -58 -47 0 -3 8 -5 18 -6 10 0 12 -3 5
-6 -17 -6 -16 -20 1 -26 10 -4 12 4 10 29 -1 19 1 32 6 29 4 -3 13 1 19 9 9
10 31 13 85 10 63 -3 75 -1 91 16 10 11 24 20 32 20 15 0 18 26 3 35 -5 3 -10
1 -10 -5 0 -6 -4 -8 -10 -5 -5 3 -10 0 -10 -7 0 -8 -11 -15 -24 -16 -19 -1
-24 3 -22 22 1 21 5 24 31 20 22 -3 25 -2 11 4 -15 7 -12 10 20 19 60 17 132
26 114 14 -11 -7 0 -11 40 -14 30 -2 15 -3 -35 -1 -102 5 -134 -5 -85 -26 25
-10 37 -11 51 -2 15 10 19 9 19 -2 0 -8 16 -16 40 -20 22 -3 40 -10 40 -15 0
-10 -59 -21 -117 -21 -33 0 -43 -4 -43 -16 0 -14 7 -16 39 -11 29 3 41 1 45
-9 3 -8 9 -14 13 -13 4 1 22 0 38 -1 l30 -2 -30 -13 c-19 -9 -49 -12 -82 -8
-51 5 -53 4 -53 -20 0 -20 6 -27 28 -30 15 -2 -3 -5 -40 -6 -65 -1 -68 -2 -68
-25 0 -14 -6 -27 -12 -29 -7 -2 -1 -3 14 -1 15 2 30 -1 33 -6 3 -6 -2 -7 -12
-4 -14 5 -15 4 -4 -4 11 -8 27 -4 60 14 64 33 174 35 250 5 30 -12 57 -18 60
-14 8 11 77 11 87 0 5 -4 0 -5 -11 -1 -19 7 -19 6 -3 -12 16 -19 16 -20 -2
-20 -11 0 -20 3 -20 6 -1 16 -19 30 -32 25 -11 -5 -1 -20 42 -64 44 -46 61
-71 78 -124 26 -80 28 -125 6 -198 -31 -108 -90 -175 -196 -224 -91 -43 -212
-26 -312 42 -23 16 -46 28 -52 28 -6 0 -19 7 -30 15 -16 14 -17 13 -10 -5 4
-11 3 -16 -1 -11 -4 4 -8 19 -8 32 l-1 24 23 -27 c34 -42 27 -22 -12 37 -19
29 -35 58 -35 66 0 8 -4 14 -10 14 -5 0 -10 -6 -10 -14 0 -8 -9 -24 -19 -37
l-19 -24 2 63 c2 34 6 65 11 70 4 4 5 -6 1 -23 l-6 -30 15 25 c10 17 14 20 15
9 0 -9 -7 -22 -15 -29 -16 -13 -21 -40 -7 -40 19 0 31 57 23 120 -5 41 -5 67
2 71 5 4 7 14 4 24 -5 10 -3 14 5 9 8 -5 9 0 5 15 -3 13 -3 20 0 17 3 -3 15
13 27 35 12 22 38 57 59 78 20 21 34 41 30 44 -11 12 -23 8 -23 -8 0 -8 -7
-15 -15 -15 -8 0 -15 -6 -15 -13 0 -24 -21 -37 -42 -26 -15 8 -23 5 -39 -15
-17 -22 -29 -26 -70 -26 l-49 0 0 -40 c0 -27 5 -43 15 -46 17 -7 20 -40 5 -49
-6 -3 -13 1 -16 9 -8 21 -60 21 -68 1 -8 -21 -26 -19 -26 3 0 14 2 15 10 2 5
-8 10 -10 10 -4 0 15 -29 39 -37 31 -3 -4 -5 -50 -4 -104 1 -54 -2 -103 -6
-110 -5 -6 -7 59 -6 145 1 166 -12 174 -21 13 -3 -59 -2 -74 3 -46 7 31 8 19
8 -55 0 -86 5 -114 32 -160 4 -8 21 -41 37 -73 62 -126 212 -245 369 -293 89
-27 249 -25 335 5 251 86 430 326 430 573 0 46 -5 101 -12 123 -6 22 -12 42
-13 45 -7 36 -39 109 -45 105 -4 -3 -6 5 -2 17 3 13 1 19 -5 15 -6 -4 -14 4
-17 18 -6 24 -26 36 -26 15 0 -5 -5 -10 -10 -10 -6 0 -6 7 2 19 10 16 7 24
-16 52 -71 86 -203 179 -273 192 -10 2 -31 10 -48 17 -48 22 -238 23 -310 2z
m272 -8 c-3 -3 -12 -4 -19 -1 -8 3 -5 6 6 6 11 1 17 -2 13 -5z m-204 -21 c-7
-2 -21 -2 -30 0 -10 3 -4 5 12 5 17 0 24 -2 18 -5z m190 0 c-7 -2 -19 -2 -25
0 -7 3 -2 5 12 5 14 0 19 -2 13 -5z m100 -10 c-7 -2 -19 -2 -25 0 -7 3 -2 5
12 5 14 0 19 -2 13 -5z m-423 -13 c0 -5 -4 -10 -9 -10 -6 0 -13 5 -16 10 -3 6
1 10 9 10 9 0 16 -4 16 -10z m515 -29 c-6 -5 -25 10 -25 20 0 5 6 4 14 -3 8
-7 12 -15 11 -17z m-536 2 c7 -15 5 -18 -17 -19 -15 0 -36 -4 -47 -8 -14 -5
-16 -5 -7 2 8 5 14 13 15 18 1 5 8 9 15 11 8 1 16 4 20 7 8 9 10 8 21 -11z
m566 -23 c-3 -5 -14 -10 -23 -10 -15 0 -15 2 -2 10 20 13 33 13 25 0z m77 -90
c3 -16 1 -30 -4 -30 -4 0 -8 3 -9 8 0 4 -2 19 -4 35 -2 15 0 25 5 22 4 -2 10
-18 12 -35z m-45 -2 c-3 -8 -6 -5 -6 6 -1 11 2 17 5 13 3 -3 4 -12 1 -19z m89
0 c5 -7 3 -8 -6 -3 -8 5 -11 3 -8 -6 3 -8 12 -13 19 -11 11 3 11 1 2 -9 -9 -9
-8 -18 4 -38 15 -25 14 -25 -10 2 -19 23 -28 56 -18 75 3 5 10 1 17 -10z
m-463 -15 c-7 -2 -19 -2 -25 0 -7 3 -2 5 12 5 14 0 19 -2 13 -5z m203 -8 c4
-8 3 -23 -1 -32 -6 -17 -7 -17 -19 0 -13 17 -32 25 -22 8 3 -4 -15 -1 -40 8
-39 14 -42 17 -22 23 44 12 98 9 104 -7z m-153 -12 c-7 -2 -21 -2 -30 0 -10 3
-4 5 12 5 17 0 24 -2 18 -5z m-90 -20 c-7 -2 -19 -2 -25 0 -7 3 -2 5 12 5 14
0 19 -2 13 -5z m154 1 c-3 -3 -12 -4 -19 -1 -8 3 -5 6 6 6 11 1 17 -2 13 -5z
m253 -60 c0 -14 -4 -23 -10 -19 -5 3 -10 15 -10 26 0 10 5 19 10 19 6 0 10
-12 10 -26z m179 -68 c1 -42 -5 -29 -12 24 -4 30 -3 38 3 25 5 -11 9 -33 9
-49z m-198 12 c13 3 11 -2 -10 -27 -16 -18 -20 -19 -31 -6 -7 9 -9 22 -5 32 5
10 7 23 6 28 -1 6 6 1 15 -10 8 -11 20 -19 25 -17z m-66 12 c3 -6 -1 -7 -9 -4
-18 7 -21 14 -7 14 6 0 13 -4 16 -10z m291 -56 c-4 -18 -11 -34 -16 -34 -13 0
-13 17 0 25 6 3 10 21 11 38 0 18 3 26 6 19 3 -7 2 -29 -1 -48z m-209 -6 c-2
-39 -22 -66 -31 -43 -6 18 3 45 15 45 5 0 9 7 9 15 0 8 2 15 5 15 2 0 3 -15 2
-32z m-698 -52 c1 11 7 21 15 21 8 0 11 -8 8 -19 -2 -10 -8 -18 -13 -18 -5 0
-9 -6 -9 -14 0 -8 -3 -17 -7 -19 -5 -3 -9 14 -9 37 -2 33 0 36 6 16 7 -22 8
-22 9 -4z m697 -22 c-4 -9 -9 -15 -11 -12 -3 3 -3 13 1 22 4 9 9 15 11 12 3
-3 3 -13 -1 -22z m-696 -58 c0 -8 -4 -18 -10 -21 -5 -3 -10 3 -10 14 0 12 5
21 10 21 6 0 10 -6 10 -14z m917 8 c-3 -3 -12 -4 -19 -1 -8 3 -5 6 6 6 11 1
17 -2 13 -5z m-907 -61 c0 -22 -2 -25 -10 -13 -8 12 -10 12 -10 1 0 -8 -3 -12
-6 -9 -6 6 13 48 21 48 3 0 5 -12 5 -27z m-199 -50 c-9 -38 -9 -38 -10 17 0
40 2 50 9 38 6 -10 7 -31 1 -55z m63 -10 c-2 -32 -3 -68 -4 -80 0 -14 -6 -23
-15 -23 -17 0 -19 35 -9 114 10 69 32 60 28 -11z m37 -55 c-9 -20 -10 -18 -10
17 0 31 2 36 9 23 6 -10 7 -25 1 -40z m-104 -15 c-3 -10 -5 -4 -5 12 0 17 2
24 5 18 2 -7 2 -21 0 -30z m228 -14 c-5 -14 -4 -19 4 -15 6 4 9 2 5 -7 -5 -15
-34 -19 -34 -5 0 9 23 48 28 48 2 0 0 -10 -3 -21z m-235 -25 c0 -8 -4 -12 -10
-9 -5 3 -10 13 -10 21 0 8 5 12 10 9 6 -3 10 -13 10 -21z m100 -19 c-7 -37
-10 -36 -14 5 -1 12 15 42 20 36 1 0 -2 -19 -6 -41z m-83 -2 c-3 -10 -5 -4 -5
12 0 17 2 24 5 18 2 -7 2 -21 0 -30z m53 -53 c12 -8 9 -10 -13 -10 -16 0 -26
4 -22 10 8 12 16 12 35 0z m305 -46 c13 -12 30 -24 37 -27 9 -4 8 -6 -3 -6 -8
-1 -26 10 -38 23 -13 14 -29 22 -36 20 -7 -3 -16 -1 -19 5 -12 19 36 7 59 -15z
m-295 -9 c0 -8 4 -15 9 -15 5 0 8 -11 7 -24 -1 -22 -2 -23 -16 -8 -17 17 -23
62 -9 62 5 0 9 -7 9 -15z m480 -55 c20 -6 21 -8 5 -8 -11 0 -31 4 -45 8 -20 6
-21 8 -5 8 11 0 31 -4 45 -8z m-351 -57 c12 -25 11 -25 -19 3 -35 34 -35 33
-11 27 10 -2 24 -16 30 -30z m334 30 c-7 -2 -21 -2 -30 0 -10 3 -4 5 12 5 17
0 24 -2 18 -5z m-28 -49 c-4 -50 -13 -53 -11 -4 0 22 4 40 8 40 3 0 5 -16 3
-36z m-340 -2 c2 -21 1 -21 -17 -5 -23 20 -23 35 -1 31 9 -2 17 -13 18 -26z
m85 -32 c0 -5 -4 -10 -10 -10 -5 0 -10 5 -10 10 0 6 5 10 10 10 6 0 10 -4 10
-10z m39 -29 c8 -1 11 -4 8 -8 -4 -3 -2 -12 4 -20 9 -9 8 -13 0 -13 -6 0 -11
5 -11 10 0 6 -8 10 -17 10 -10 1 -29 7 -43 14 -24 14 -24 14 10 11 19 -2 41
-3 49 -4z m41 -7 c0 -8 -4 -12 -10 -9 -5 3 -10 10 -10 16 0 5 5 9 10 9 6 0 10
-7 10 -16z m164 8 c3 -5 -5 -8 -17 -8 -27 1 -65 -63 -44 -76 7 -5 8 -8 1 -8
-6 0 -13 3 -17 6 -6 7 11 63 26 82 11 14 43 16 51 4z"/>
<path d="M5380 7266 c0 -9 5 -16 10 -16 6 0 10 4 10 9 0 6 -4 13 -10 16 -5 3
-10 -1 -10 -9z"/>
<path d="M5410 7199 c0 -5 5 -7 10 -4 6 3 10 8 10 11 0 2 -4 4 -10 4 -5 0 -10
-5 -10 -11z"/>
<path d="M4648 7459 c-10 -10 -18 -26 -18 -34 0 -8 -5 -14 -12 -12 -6 1 -31
-34 -54 -79 -40 -75 -42 -83 -35 -130 5 -30 10 -39 11 -24 1 14 1 30 0 35 -12
48 -11 50 5 25 l15 -25 -6 35 c-5 33 -3 36 21 38 33 2 45 -25 19 -46 -10 -8
-12 -12 -4 -8 8 3 23 9 33 12 19 7 24 59 7 84 -9 13 -12 13 -21 -2 -5 -10 -18
-18 -29 -18 -15 0 -13 5 12 32 29 31 59 81 57 94 0 4 6 11 15 16 16 9 22 29 9
27 -5 0 -16 -9 -25 -20z m-37 -76 c-12 -20 -14 -14 -5 12 4 9 9 14 11 11 3 -2
0 -13 -6 -23z m19 -83 c0 -11 -4 -20 -10 -20 -5 0 -10 9 -10 20 0 11 5 20 10
20 6 0 10 -9 10 -20z"/>
<path d="M4778 7443 c7 -3 16 -2 19 1 4 3 -2 6 -13 5 -11 0 -14 -3 -6 -6z"/>
<path d="M4760 7383 c0 -11 3 -14 8 -7 4 6 14 14 22 17 10 4 8 6 -7 6 -16 1
-23 -5 -23 -16z"/>
<path d="M4710 7375 c0 -8 4 -15 10 -15 5 0 7 7 4 15 -4 8 -8 15 -10 15 -2 0
-4 -7 -4 -15z"/>
<path d="M4800 7344 c0 -14 3 -15 18 -3 9 7 19 15 21 16 2 2 -5 3 -17 3 -14 0
-22 -6 -22 -16z"/>
<path d="M4830 7330 c0 -5 -7 -10 -16 -10 -11 0 -14 -5 -10 -16 3 -9 6 -20 6
-25 0 -6 5 -7 11 -4 6 4 8 13 5 20 -2 7 2 16 10 19 16 6 19 26 4 26 -5 0 -10
-4 -10 -10z"/>
<path d="M4575 7210 c3 -5 8 -10 11 -10 2 0 4 5 4 10 0 6 -5 10 -11 10 -5 0
-7 -4 -4 -10z"/>
<path d="M5495 6154 c-211 -46 -424 -216 -524 -419 -54 -109 -71 -179 -78
-315 -10 -225 55 -399 211 -567 143 -153 308 -234 521 -255 99 -9 120 -8 210
10 256 54 473 233 574 476 44 106 61 191 61 316 0 289 -136 519 -400 678 -20
11 -78 35 -130 53 -86 29 -108 32 -235 35 -99 3 -161 -1 -210 -12z m314 -229
c265 -63 436 -296 418 -571 -20 -300 -256 -524 -551 -524 -138 0 -276 60 -382
165 -111 110 -164 240 -164 400 0 157 43 258 160 376 143 144 327 199 519 154z"/>
<path d="M1150 6030 l0 -110 365 0 365 0 -198 -297 c-109 -164 -249 -377 -312
-473 -62 -96 -137 -212 -167 -257 l-53 -82 0 -85 0 -86 530 0 530 0 0 110 0
110 -375 2 -375 3 88 135 c48 74 119 182 156 240 157 241 449 674 473 701 12
15 18 82 14 182 -1 16 -33 17 -521 17 l-520 0 0 -110z"/>
<path d="M2346 6133 c-3 -4 -6 -341 -6 -750 l0 -743 495 0 495 0 0 110 0 110
-372 2 -373 3 -3 208 -2 207 330 0 330 0 0 110 0 110 -330 0 -330 0 0 210 0
210 375 0 376 0 -3 108 -3 107 -486 2 c-268 1 -490 -1 -493 -4z"/>
<path d="M3470 5390 l0 -750 120 0 120 0 0 542 c0 473 2 540 14 528 18 -18
134 -170 413 -540 115 -151 252 -332 306 -402 l99 -128 94 0 94 0 0 750 0 750
-115 0 -115 0 -2 -521 -3 -522 -95 124 c-51 68 -153 201 -225 294 -72 94 -200
260 -285 370 -217 283 -183 255 -312 255 l-108 0 0 -750z"/>
<path d="M6350 6126 c0 -8 89 -223 199 -478 391 -912 527 -1211 545 -1205 5 2
75 156 156 343 80 186 184 425 229 529 71 162 333 774 348 813 4 10 -22 12
-122 10 l-128 -3 -62 -145 c-326 -757 -423 -982 -428 -986 -2 -3 -39 78 -82
178 -42 101 -151 357 -242 571 l-166 387 -123 0 c-102 0 -124 -3 -124 -14z"/>
<path d="M8192 6131 c-9 -6 -281 -558 -389 -791 -12 -25 -89 -189 -172 -364
-83 -176 -151 -323 -151 -328 0 -6 52 -8 121 -7 l121 3 77 158 76 157 410 1
411 0 59 -131 c32 -71 67 -143 77 -160 l18 -29 120 0 c66 0 120 4 120 9 0 13
-154 343 -400 856 -44 94 -111 233 -148 310 -37 77 -87 181 -112 230 l-45 90
-91 2 c-49 1 -96 -2 -102 -6z m116 -338 c10 -27 125 -275 231 -496 28 -59 51
-110 51 -112 0 -3 -135 -5 -301 -5 -179 0 -299 4 -297 9 15 43 295 630 300
631 3 0 11 -12 16 -27z"/>
<path d="M3318 4257 c-101 -29 -161 -103 -161 -199 0 -109 62 -164 233 -208
137 -35 190 -75 190 -145 0 -82 -67 -135 -169 -135 -96 0 -159 35 -184 103
-12 31 -67 18 -67 -17 0 -27 38 -80 79 -111 75 -55 230 -61 314 -12 81 48 122
137 99 216 -26 85 -94 133 -242 171 -100 26 -131 41 -160 77 -31 40 -24 112
16 154 72 76 229 62 289 -26 18 -27 23 -29 53 -20 17 5 32 15 32 22 0 22 -69
91 -114 112 -54 27 -148 35 -208 18z"/>
<path d="M6585 4257 c-119 -31 -214 -108 -267 -215 -30 -61 -33 -74 -33 -162
0 -87 3 -101 32 -161 39 -80 111 -150 191 -187 50 -24 69 -27 162 -27 99 0
110 2 172 33 82 40 158 121 190 202 18 43 22 75 22 150 0 87 -2 100 -31 156
-42 80 -134 165 -209 194 -72 27 -164 33 -229 17z m197 -83 c60 -20 136 -87
168 -150 35 -68 36 -206 3 -274 -90 -181 -315 -233 -480 -109 -77 58 -108 127
-108 244 0 81 3 95 30 144 79 143 225 198 387 145z"/>
<path d="M3767 4253 c-4 -3 -7 -19 -7 -34 l0 -28 128 -3 127 -3 0 -337 0 -338
38 0 37 0 0 340 0 340 125 0 125 0 0 35 0 35 -283 0 c-156 0 -287 -3 -290 -7z"/>
<path d="M4489 4248 c-1 -7 -1 -130 1 -273 2 -256 2 -261 28 -319 49 -110 147
-163 286 -154 114 7 190 61 240 168 20 42 21 62 21 315 l0 270 -35 0 -35 0 -5
-271 -5 -271 -30 -48 c-96 -153 -340 -114 -384 61 -6 25 -11 145 -11 288 l0
246 -35 0 c-21 0 -36 -5 -36 -12z"/>
<path d="M5240 3884 l0 -376 183 4 c172 3 185 5 239 30 76 35 138 94 179 170
33 60 34 67 34 168 -1 128 -19 175 -97 254 -97 96 -193 126 -403 126 l-135 0
0 -376z m366 279 c65 -25 114 -63 148 -112 36 -51 47 -93 47 -178 0 -88 -22
-144 -81 -203 -69 -69 -114 -84 -267 -88 l-133 -4 0 307 0 307 118 -4 c85 -4
131 -11 168 -25z"/>
<path d="M6047 4253 c-4 -3 -7 -172 -7 -375 l0 -368 40 0 40 0 0 375 0 375
-33 0 c-19 0 -37 -3 -40 -7z"/>
<path d="M4905 2980 c-105 -105 -192 -195 -193 -200 -5 -13 377 -400 394 -400
11 0 386 380 391 397 4 11 -380 393 -393 393 -5 0 -95 -86 -199 -190z"/>
</g>
</svg>
